<?xml version="1.0" encoding="UTF-8"?>
<svg id="Capa_1" data-name="Capa 1" xmlns="http://www.w3.org/2000/svg" viewBox="0 0 250 250">
  <defs>
    <style>
      .cls-1 {
        fill: #fff;
      }
    </style>
  </defs>
  <circle class="cls-1" cx="125" cy="125" r="120"/>
  <path d="M129.55,124.85c-8.79,8.68-17.57,17.36-26.36,26.04-2.58,3.46-2.19,8.2.64,10.93,2.38,2.29,6.13,2.84,9.32,1.29,11.46-11.46,22.93-22.93,34.39-34.39.34-.61,1.08-2.13.96-4.18-.11-1.92-.9-3.28-1.29-3.86-11.04-11.04-22.07-22.07-33.11-33.11-3.32-2.33-7.71-1.96-10.29.64-2.09,2.1-2.72,5.39-1.61,8.36,9.11,9.43,18.21,18.86,27.32,28.29Z"/>
</svg>