<svg id="Capa_1" data-name="Capa 1" xmlns="http://www.w3.org/2000/svg" viewBox="0 0 305.34 382.01"><defs><style>.cls-1{fill:none;stroke:#1d1d1b;stroke-miterlimit:10;stroke-width:6px;}.cls-1,.cls-2{opacity:0.95;}.cls-3{font-size:72px;fill:#1d1d1b;font-family:MyriadPro-Regular, Myriad Pro;}.cls-4{letter-spacing:0em;}.cls-5{letter-spacing:-0.01em;}</style></defs><circle class="cls-1" cx="147.24" cy="127.39" r="124.39"/><path class="cls-1" d="M249.34,307.26H368.59s9-.32,8-10.28l-9-90s-.33-5.14-7.08-5.14H255.45a6.91,6.91,0,0,0-6.11,6.1l-8.68,91S240.34,306.3,249.34,307.26Z" transform="translate(-161.6 -117.27)"/><path class="cls-1" d="M274.41,230.76V188s6.18-31.17,34.43-29.25c0,0,24.39-2.57,33.07,27v51.75s1.61,30.22-33.75,43.72c0,0-14.46,2.46-25.18,1.07" transform="translate(-161.6 -117.27)"/><g class="cls-2"><text class="cls-3" transform="translate(0 355.67)">One<tspan class="cls-4" x="125.64" y="0">P</tspan><tspan x="163.58" y="0">la</tspan><tspan class="cls-5" x="215.28" y="0">c</tspan><tspan x="247.1" y="0">e</tspan></text></g></svg>